<svg xmlns="http://www.w3.org/2000/svg" viewBox="0 0 100 100" width="100" height="100">
  <defs>
    <linearGradient id="faviconGold" x1="0%" y1="0%" x2="100%" y2="100%">
      <stop offset="0%" style="stop-color:#FFD700;stop-opacity:1" />
      <stop offset="100%" style="stop-color:#FFA500;stop-opacity:1" />
    </linearGradient>
    <linearGradient id="faviconGreen" x1="0%" y1="0%" x2="100%" y2="100%">
      <stop offset="0%" style="stop-color:#2d8650;stop-opacity:1" />
      <stop offset="100%" style="stop-color:#1e5a35;stop-opacity:1" />
    </linearGradient>
  </defs>
  
  <!-- Background circle -->
  <circle cx="50" cy="50" r="48" fill="url(#faviconGold)" opacity="0.2"/>
  
  <!-- Simplified herb/leaf symbol -->
  <g transform="translate(50, 50)">
    <!-- Main leaf -->
    <path d="M -15,-10 Q -20,-5 -18,5 Q -15,15 -10,18 Q -5,15 -2,5 Q 0,-5 -5,-10 Q -10,-12 -15,-10 Z" 
          fill="url(#faviconGreen)" stroke="#FFD700" stroke-width="2"/>
    <!-- Secondary leaf -->
    <path d="M 5,-8 Q 10,-3 8,7 Q 5,12 0,15 Q -5,12 -7,7 Q -8,-3 -3,-8 Q 0,-10 5,-8 Z" 
          fill="url(#faviconGreen)" stroke="#FFD700" stroke-width="1.5" opacity="0.8"/>
    <!-- Decorative dot -->
    <circle cx="0" cy="0" r="3" fill="#FFD700"/>
  </g>
</svg>
