<svg xmlns="http://www.w3.org/2000/svg" viewBox="0 0 100 100" width="100" height="100">
  <defs>
    <linearGradient id="goldGradient" x1="0%" y1="0%" x2="100%" y2="100%">
      <stop offset="0%" style="stop-color:#FFD700;stop-opacity:1" />
      <stop offset="50%" style="stop-color:#FFA500;stop-opacity:1" />
      <stop offset="100%" style="stop-color:#FF8C00;stop-opacity:1" />
    </linearGradient>
    <linearGradient id="greenGradient" x1="0%" y1="0%" x2="100%" y2="100%">
      <stop offset="0%" style="stop-color:#2d8650;stop-opacity:1" />
      <stop offset="100%" style="stop-color:#1e5a35;stop-opacity:1" />
    </linearGradient>
    <filter id="shadow">
      <feDropShadow dx="2" dy="2" stdDeviation="3" flood-opacity="0.3"/>
    </filter>
  </defs>
  
  <!-- Background decorative circle -->
  <circle cx="50" cy="50" r="42" fill="url(#goldGradient)" opacity="0.15"/>
  
  <!-- Traditional medicine symbol - stylized herb/leaf -->
  <g transform="translate(50, 50)" filter="url(#shadow)">
    <!-- Main large leaf -->
    <path d="M -20,-15 Q -25,-8 -22,8 Q -18,22 -10,28 Q -2,22 2,8 Q 4,-8 -2,-15 Q -8,-18 -20,-15 Z" 
          fill="url(#greenGradient)" stroke="#FFD700" stroke-width="2"/>
    
    <!-- Secondary leaf on right -->
    <path d="M 8,-12 Q 15,-5 12,10 Q 8,18 0,22 Q -8,18 -11,10 Q -12,-5 -5,-12 Q 0,-14 8,-12 Z" 
          fill="url(#greenGradient)" stroke="#FFD700" stroke-width="1.5" opacity="0.85"/>
    
    <!-- Small decorative leaves -->
    <ellipse cx="-12" cy="5" rx="6" ry="10" fill="url(#greenGradient)" opacity="0.6" transform="rotate(-30)"/>
    <ellipse cx="5" cy="8" rx="5" ry="8" fill="url(#greenGradient)" opacity="0.5" transform="rotate(20)"/>
    
    <!-- Golden dots representing traditional medicine elements -->
    <circle cx="-15" cy="-5" r="3" fill="#FFD700"/>
    <circle cx="0" cy="0" r="2.5" fill="#FFD700"/>
    <circle cx="8" cy="5" r="2" fill="#FFD700"/>
  </g>
</svg>
